<svg width="348" height="668" viewBox="0 0 348 668" fill="none" xmlns="http://www.w3.org/2000/svg">
<g clip-path="url(#clip0_407_230)">
<path d="M52.6027 0L161.859 100.139L97.1144 116.015L51.2539 158.757L52.6027 0Z" fill="#002224"/>
<path d="M347.866 488.482L346.652 668H190.187L182.094 617.93L206.373 549.543L276.512 498.252L347.866 488.482Z" fill="#002224"/>
<path d="M302.141 569.082V668L248.188 636.248L252.234 589.843L302.141 569.082Z" fill="#06B0BB"/>
<path d="M347.999 456.732V488.483L277.859 498.253L206.371 549.544L182.092 619.152L190.185 668.001H163.208L161.859 426.202L338.422 424.98L347.999 456.732Z" fill="#C1F1F9"/>
<path d="M161.86 426.201L163.209 668H94.418V531.225L161.86 426.201Z" fill="#002224"/>
<path d="M214.464 357.814V426.202H161.859L214.464 357.814Z" fill="#C1F1F9"/>
<path d="M331.813 402.998L338.558 424.98L214.464 426.201V357.814L161.86 426.201L94.418 531.225V388.344L151.069 357.814L141.627 296.754L94.418 278.435V250.348L161.86 272.329L179.53 266.345L198.278 302.86L240.092 326.062L288.651 350.487L331.813 402.998Z" fill="#002224"/>
<path d="M141.627 296.754L151.069 357.814L94.418 388.344V278.436L141.627 296.754Z" fill="#C1F1F9"/>
<path d="M94.4167 295.531V372.467L51.2539 355.37L52.6027 311.407L94.4167 295.531Z" fill="#002224"/>
<path d="M94.4186 459.174V668L0 613.046L4.04651 519.013L94.4186 459.174Z" fill="#06B0BB"/>
<path d="M271.117 161.199L267.07 202.72L230.651 249.126L179.531 266.345L161.861 272.329V219.817L133.535 191.729L161.861 192.951V162.42H172.651L190.186 181.96L215.814 190.508L238.744 185.623L258.977 161.199H271.117Z" fill="#06B0BB"/>
<path d="M258.843 161.322L238.745 185.624L215.815 190.509L190.187 181.961L172.652 162.421V162.299L258.843 161.322Z" fill="#002224"/>
<path d="M271.115 161.199L258.841 161.321L172.65 162.298L161.859 162.42V100.139L215.813 113.572L271.115 161.199Z" fill="#06B0BB"/>
<path d="M270.845 1.70919L202.324 109.908L202.19 110.152L161.859 100.138L269.766 1.2207L270.845 1.70919Z" fill="#06B0BB"/>
<path d="M269.768 3.29688L271.117 161.199L215.815 113.572L202.191 110.152L202.326 109.908L269.768 3.29688Z" fill="#002224"/>
<path d="M161.859 219.817V272.329L94.4167 250.347L55.3004 207.605L51.2539 158.757L97.1144 116.014L161.859 100.139V162.42V192.95L133.533 191.729L161.859 219.817Z" fill="#002224"/>
<path d="M152.417 163.641L121.394 188.065L84.9756 185.623L59.3477 162.42L152.417 163.641Z" fill="#C1F1F9"/>
</g>
<defs>
<clipPath id="clip0_407_230">
<rect width="348" height="668" fill="white"/>
</clipPath>
</defs>
</svg>
