<svg width="435" height="735" viewBox="0 0 435 735" fill="none" xmlns="http://www.w3.org/2000/svg">
<path d="M29.6992 402.699L195.699 734.699H58.6992L29.6992 402.699Z" fill="#002224"/>
<path d="M350.7 28.7L391.7 407.7L334.7 348.7L314.7 358.7L269.7 359.7L235.7 331.7L227.7 283.7L243.7 252.7L197.7 204.7L155.7 255.7L159.7 276.7L147.7 317.7L109.7 345.7L74.7 346.7L31.7 395.7L0 0L200.7 200.7L350.7 28.7Z" fill="#002224"/>
<path d="M116.699 228.699L144.699 269.699L128.699 317.699L83.6992 332.699L46.6992 311.699L35.6992 270.699L58.6992 231.699L84.6992 222.699L116.699 228.699Z" fill="#06B0BB"/>
<path d="M103.699 257.699L105.699 285.699L88.6992 316.699L62.6992 286.699L64.6992 258.699L87.6992 229.699L103.699 257.699Z" fill="#007C7C"/>
<path d="M116.699 300.699L115.699 309.699L108.699 312.699L102.699 303.699L110.699 297.699L116.699 300.699Z" fill="#C1F1F9"/>
<path d="M392.699 411.699L434.699 734.699H287.699L392.699 411.699Z" fill="#002224"/>
<path d="M267.699 218.699L313.699 168.699" stroke="#C1F1F9" stroke-width="2" stroke-miterlimit="10"/>
<path d="M362.699 140.699L313.699 168.699" stroke="#C1F1F9" stroke-width="2" stroke-miterlimit="10"/>
<path d="M290.699 217.699L320.699 193.699" stroke="#C1F1F9" stroke-width="2" stroke-miterlimit="10"/>
<path d="M366.699 176.699L320.699 193.699" stroke="#C1F1F9" stroke-width="2" stroke-miterlimit="10"/>
<path d="M300.699 227.699L327.699 209.699" stroke="#C1F1F9" stroke-width="2" stroke-miterlimit="10"/>
<path d="M368.699 197.699L327.699 209.699" stroke="#C1F1F9" stroke-width="2" stroke-miterlimit="10"/>
<path d="M36.6992 112.699L102.699 166.699" stroke="#C1F1F9" stroke-width="2" stroke-miterlimit="10"/>
<path d="M130.699 219.699L102.699 166.699" stroke="#C1F1F9" stroke-width="2" stroke-miterlimit="10"/>
<path d="M54.6992 150.699L100.699 181.699" stroke="#C1F1F9" stroke-width="2" stroke-miterlimit="10"/>
<path d="M121.699 218.699L100.699 181.699" stroke="#C1F1F9" stroke-width="2" stroke-miterlimit="10"/>
<path d="M11.6992 140.699L83.6992 182.699" stroke="#C1F1F9" stroke-width="2" stroke-miterlimit="10"/>
<path d="M105.699 205.699L83.6992 182.699" stroke="#C1F1F9" stroke-width="2" stroke-miterlimit="10"/>
<path d="M343.699 263.699L352.699 299.699L327.699 338.699L272.699 339.699L246.699 296.699L262.699 253.699L299.699 239.699L343.699 263.699Z" fill="#06B0BB"/>
<path d="M331.699 320.699L324.699 327.699L316.699 320.699L324.699 313.699L331.699 320.699Z" fill="#C1F1F9"/>
<path d="M294.699 252.699L313.699 281.699L310.699 313.699L295.699 334.699L273.699 305.699L275.699 276.699L294.699 252.699Z" fill="#007C7C"/>
<path d="M393.699 407.699L394.699 411.699L288.599 734.699H195.599L27.6992 402.699L29.7992 395.699L73.1992 346.699L108.599 345.699L146.999 317.699L159.199 276.699L155.099 255.699L197.599 204.699L244.099 252.699L227.899 283.699L235.999 331.699L270.399 359.699L315.899 358.699L336.099 348.699L393.699 407.699Z" fill="#C1F1F9"/>
<path d="M196.902 364.1L211.702 390.7L188.702 368.7L188.602 368.5L196.902 364.1Z" fill="#002224"/>
<path d="M174.699 362.699L180.699 372.699L145.699 391.699L174.699 362.699Z" fill="#002224"/>
<path d="M212.699 355.699L180.699 372.699L165.699 347.699L212.699 355.699Z" fill="#06B0BB"/>
</svg>
