<svg width="700" height="700" viewBox="0 0 700 700" fill="none" xmlns="http://www.w3.org/2000/svg">
<circle cx="350" cy="350" r="350" fill="#08C9D6"/>
<path d="M141.348 485.862C255.848 644.99 450.532 632.5 558.57 488.275L628.477 536.456V562C497.848 730.5 242.848 755 82.7223 576L79.6875 536.456L141.348 485.862Z" fill="#C1F1F9"/>
<path d="M113.336 204.009V91.5C180.437 36.835 220.937 20.5061 295.201 4L317.382 103.5L135.822 219.5L113.336 204.009Z" fill="#C1F1F9"/>
<path d="M404.923 14.725L413.423 5C493.086 22.2272 533.601 44.015 598.474 101.5L591.093 216.397L571 233C512.755 147.827 470.144 120.776 385.5 102.5L404.923 14.725Z" fill="#C1F1F9"/>
<path d="M86.4199 450.42L15.8487 454.03C-4.6642 364.603 -4.77161 316.13 20.8487 233.471L86.4199 263.891L106.318 299L109.58 422.5L86.4199 450.42Z" fill="#C1F1F9"/>
<path d="M584.016 443.5L587.359 270.085L621.004 237.047L679.345 230.295C703.319 305.522 705.069 350.027 690.845 434.351L664.369 461.433H599.321L584.016 443.5Z" fill="#C1F1F9"/>
</svg>
