<svg width="244" height="689" viewBox="0 0 244 689" fill="none" xmlns="http://www.w3.org/2000/svg">
<g clip-path="url(#clip0_405_12)">
<path d="M158 502L229 575L227 688L4 609L1 592L158 502Z" fill="#002224"/>
<path d="M241 306L237 318L221 333L206 336L196 348L153 342L181 331L163 310L169 290L180 308L230 300L241 306Z" fill="#002224"/>
<path d="M238 294L241 306L230 300L180 308L169 290L184 285L201 289L223 284L238 294Z" fill="#007C7C"/>
<path d="M222.999 284L200.999 289L153.199 236.1L222.999 284Z" fill="#002224"/>
<path d="M174 175L172 213" stroke="black" stroke-width="2" stroke-miterlimit="10"/>
<path d="M194 159L174 175" stroke="black" stroke-width="2" stroke-miterlimit="10"/>
<path d="M211 165L194 159" stroke="black" stroke-width="2" stroke-miterlimit="10"/>
<path d="M109 412L158 502L57 560L107 326L109 412Z" fill="#007C7C"/>
<path d="M107 326L57 559L1 592L95 320L107 326Z" fill="#06B0BB"/>
<path d="M53 261L95 320L1 592V451L53 261Z" fill="#C1F1F9"/>
<path d="M135 216L95 320L53 261L135 216Z" fill="#002224"/>
<path d="M138.3 165L135 216L53 261L40 240L35 164L51 124L71 107L97 97L103 96L123 126L138 165H138.3Z" fill="#002224"/>
<path d="M153.2 236.1L201 289L184 285L169 290L163 310L181 331L153 342L107 326L95 320L135 216L153.2 236.1Z" fill="#C1F1F9"/>
<path d="M135 216L173 150" stroke="black" stroke-width="2" stroke-miterlimit="10"/>
<path d="M225 25L237 59L211 76L187 113L202 129L173 150L135 216L138.3 165L142.9 96.3L152 97L181 109L225 25Z" fill="#C1F1F9"/>
<path d="M174 223L223 284L153.2 236.1L135 216L173 150L202 129L220 171L222 202L201 221L174 223Z" fill="#002224"/>
<path d="M225 25L181 109L152 97L211 39L225 25Z" fill="#002224"/>
<path d="M244 32L242 127L237 59L225 25L244 32Z" fill="#007C7C"/>
<path d="M142.9 96.3L138.3 165H138L123 126L103 96L98 41L124 95L142.9 96.3Z" fill="#002224"/>
<path d="M98 41L103 96L97 97L74 31L89 0L98 41Z" fill="#C1F1F9"/>
<path d="M74 31L97 97L71 107L51 124L45 91L74 31Z" fill="#002224"/>
<path d="M89 0L74 31L45 91L2 181L1 46L89 0Z" fill="#002224"/>
<path d="M113 159L121 178L111 211L79 225L48 207L45 171L72 148L91 147L113 159Z" fill="#C1F1F9"/>
<path d="M95 164L107 181L102 198L87 210L64 201L57 176L74 162L95 164Z" fill="#007C7C"/>
<path d="M95 180L89 193L75 194L69 183L75 176L86 172L95 180Z" fill="#002224"/>
<path d="M220 171L222 202L201 221L172 213L174 175L194 159L211 165L220 171Z" fill="#C1F1F9"/>
<path d="M202 169L212 188L197 205L179 199L174 175L193 164L202 169Z" fill="#002224"/>
</g>
<defs>
<clipPath id="clip0_405_12">
<rect width="243.5" height="688.5" fill="white"/>
</clipPath>
</defs>
</svg>
