<svg width="503" height="503" viewBox="0 0 503 503" fill="none" xmlns="http://www.w3.org/2000/svg">
<circle cx="252.094" cy="250" r="250" fill="#000E0E"/>
<path d="M143.699 255.559L256.597 188.105L351.551 224.585L389.682 341.597L459.589 389.778C356.418 540.984 146.003 539.89 42.8672 386.955L83.8855 353.298L143.699 255.559Z" fill="#C1F1F9"/>
<path d="M37.0938 122.504C69.0938 48.0049 177.094 2.50519 218.094 2.50586L232.675 69.0322L220.712 144.057L127.254 183.29L37.0938 122.504Z" fill="#C1F1F9"/>
<path d="M287.594 2.50098C355.594 9 447.82 67.92 473.094 133.005L397.16 187.419L317.159 159.887L273.047 74.5373L287.594 2.50098Z" fill="#C1F1F9"/>
<path d="M12.6009 322.003C-3.20625 280.804 -3.07842 243.62 7.09375 200.503L50.2445 276.21L12.6009 322.003Z" fill="#C1F1F9"/>
<path d="M489.094 170.5C512.594 230 500.356 314.497 484.094 343.5L442.773 295.483L454.736 204.627L489.094 170.5Z" fill="#C1F1F9"/>
</svg>
