<svg width="1000" height="1000" viewBox="0 0 1000 1000" fill="none" xmlns="http://www.w3.org/2000/svg">
<circle cx="500" cy="500" r="500" fill="#002224"/>
<path d="M230.492 721C305.733 801.552 359.066 830.617 476.501 849.36L421.488 879.869L295.879 883.999L237.561 813.104L230.492 721Z" fill="#C1F1F9"/>
<path d="M499.5 851.503C624.56 837.345 690.574 807.556 779 712L776.629 813.104L710.087 883.999H585.226L499.5 851.503Z" fill="#C1F1F9"/>
<path d="M261.488 245.5V201.894L348.218 78L438.686 133.064L443.688 155.5C365.833 171.241 327.413 191.291 261.488 245.5Z" fill="#C1F1F9"/>
<path d="M560.703 156L605.414 104.843L710.088 148.206L747.472 238.373L749 252C696 203.5 612.5 159.5 560.703 156Z" fill="#C1F1F9"/>
<path d="M97 449.683L139.617 369.84L170.5 384.167L168 603.826L126.907 605.927L103.729 532.279L97 449.683Z" fill="#C1F1F9"/>
<path d="M841 584L830.5 379.948L900.001 371.904V484.786L859.627 563.252L841 584Z" fill="#C1F1F9"/>
</svg>
