<svg width="1920" height="1080" viewBox="0 0 1920 1080" fill="none" xmlns="http://www.w3.org/2000/svg">
<path opacity="0.1" d="M972.512 625.146L1199.55 702.678L1290.72 951.363L1625.03 1156.16V1425.33L1465.92 1576H1167.37L924.244 1494.08L775.864 1567.22L475.529 1576L336.087 1425.33L312.847 1156.16L559.551 976.231L702.568 768.506L972.512 625.146Z" fill="#005C62"/>
<path opacity="0.1" d="M393.293 126.313L600.667 -137L816.98 -19.9718L915.304 372.073L886.701 531.524L663.237 614.906L393.293 449.604V126.313Z" fill="#005C62"/>
<path opacity="0.1" d="M1215.64 -79.9492L1465.92 12.2105L1555.31 203.844L1535.64 475.935L1308.6 623.683L1117.32 565.169L1011.84 383.775L1090.5 47.319L1215.64 -79.9492Z" fill="#005C62"/>
<path opacity="0.1" d="M101.899 483.25L328.938 576.873L479.106 812.392L328.938 973.306L71.5084 985.008L16.0894 828.483L0 652.941L101.899 483.25Z" fill="#005C62"/>
<path opacity="0.1" d="M1607.15 519.821L1920 487.639V727.546L1823.46 894.312L1710.84 996.711H1555.31L1417.65 853.352L1446.26 660.255L1607.15 519.821Z" fill="#005C62"/>
</svg>
