<svg width="659" height="675" viewBox="0 0 659 675" fill="none" xmlns="http://www.w3.org/2000/svg">
<ellipse cx="329.5" cy="337.5" rx="329.5" ry="337.5" fill="#00959F"/>
<ellipse cx="329.5" cy="337.5" rx="296.55" ry="303.75" fill="#002224"/>
<path d="M329.5 125.5C443.667 125.5 536.38 220.325 536.38 337.5C536.38 454.675 443.667 549.5 329.5 549.5C215.333 549.5 122.62 454.675 122.62 337.5C122.62 220.325 215.333 125.5 329.5 125.5Z" fill="#000E0E" stroke="#00959F" stroke-width="8"/>
<path d="M201 373V316.7H225.3L233.6 367.2H233.8L241.9 316.7H266.1V373H251.6L252.6 322.6H252.5L243.7 373H223.4L214.8 322.6H214.6L215.5 373H201ZM276.563 373V316.7H319.163V328.6H290.263V338.9H311.763V350.1H290.263V361.9H320.263V373H276.563ZM354.106 374.4C344.773 374.4 337.64 371.767 332.706 366.5C327.773 361.167 325.306 354 325.306 345C325.306 339.067 326.373 333.933 328.506 329.6C330.64 325.2 333.84 321.8 338.106 319.4C342.373 316.933 347.706 315.7 354.106 315.7C363.44 315.7 370.54 318.367 375.406 323.7C380.273 328.967 382.706 336.067 382.706 345C382.706 350.8 381.606 355.933 379.406 360.4C377.273 364.8 374.073 368.233 369.806 370.7C365.606 373.167 360.373 374.4 354.106 374.4ZM353.906 360.9C357.306 360.9 360.106 360.2 362.306 358.8C364.573 357.333 366.24 355.4 367.306 353C368.44 350.533 369.006 347.867 369.006 345C369.006 342.067 368.44 339.367 367.306 336.9C366.24 334.433 364.573 332.467 362.306 331C360.106 329.533 357.306 328.8 353.906 328.8C349.04 328.8 345.306 330.333 342.706 333.4C340.173 336.467 338.906 340.333 338.906 345C338.906 347.8 339.44 350.433 340.506 352.9C341.64 355.3 343.306 357.233 345.506 358.7C347.706 360.167 350.506 360.9 353.906 360.9ZM418.62 316.7H433.42L426.02 334.3L421.32 373H398.92L387.82 316.7H402.62L410.02 367.3L418.62 316.7ZM449.22 316.7H464.02L453.62 373H431.32L426.02 334.3L418.42 316.7H433.42L442.52 367.3L449.22 316.7Z" fill="#00959F"/>
<g filter="url(#filter0_d_433_7568)">
<ellipse cx="329.5" cy="344.25" rx="59.31" ry="60.75" fill="#000E0E"/>
<path d="M329.5 288C359.669 288 384.31 313.082 384.31 344.25C384.31 375.418 359.669 400.5 329.5 400.5C299.33 400.5 274.69 375.418 274.69 344.25C274.69 313.082 299.33 288 329.5 288Z" stroke="#00959F" stroke-width="9"/>
</g>
<path opacity="0.2" d="M311.707 48.6001H364.427L353.224 122.85L320.933 121.5L311.707 48.6001Z" fill="#00959F"/>
<path opacity="0.2" d="M597.914 239.754L612.038 291.78L537.744 301.05L529.836 270L597.914 239.754Z" fill="#00959F"/>
<path opacity="0.2" d="M516.98 553.223L475.432 586.463L439.64 520.883L465.899 501.588L516.98 553.223Z" fill="#000E0E"/>
<path opacity="0.2" d="M182.687 586.854L139.595 555.745L190.513 501.665L216.148 521.823L182.687 586.854Z" fill="#00959F"/>
<path opacity="0.2" d="M52.2103 279.753L65.8637 227.595L132.979 257.908L123.343 289.505L52.2103 279.753Z" fill="#000E0E"/>
<path opacity="0.2" d="M460.642 90.4507L499.545 118.622L445.492 157.28L417.814 141.08L460.642 90.4507Z" fill="#000E0E"/>
<path opacity="0.25" d="M499.522 118.8L509.407 123.525L477.102 182.925L446.129 157.275L499.522 118.8Z" fill="#00959F"/>
<path opacity="0.2" d="M598.454 397.943L582.379 443.88L531.154 400.95L538.403 369.225L598.454 397.943Z" fill="#000E0E"/>
<path opacity="0.2" d="M374.291 614.253L322.908 618.301L309.034 552.823L377.588 548.099L374.291 614.253Z" fill="#00959F"/>
<path opacity="0.2" d="M84.492 464.762L68.5382 418.78L134.463 419.076L147.975 448.65L84.492 464.762Z" fill="#000E0E"/>
<path opacity="0.2" d="M130.241 143.235L167.386 112.049L189.792 176.175L166.892 198.718L130.241 143.235Z" fill="#00959F"/>
<path opacity="0.2" d="M167.386 112.04L177.929 104.624L226.039 149.166L189.794 176.166L167.386 112.04Z" fill="#00959F"/>
<path opacity="0.2" d="M414.511 60.75L460.805 89.9283L417.806 141.075L386.854 129.444L414.511 60.75Z" fill="#00959F"/>
<path opacity="0.2" d="M614.028 344.461L598.986 397.963L538.403 369.225L540.38 336.15L614.028 344.461Z" fill="#00959F"/>
<path opacity="0.2" d="M428.659 608.465L374.639 614.658L377.79 547.239L409.173 536.889L428.659 608.465Z" fill="#000E0E"/>
<path opacity="0.2" d="M105.502 516.259L84.0726 465.091L147.986 448.658L166.745 476.429L105.502 516.259Z" fill="#00959F"/>
<path opacity="0.2" d="M90.2881 181.195L129.792 142.951L166.887 198.738L147.904 226.348L90.2881 181.195Z" fill="#000E0E"/>
<path opacity="0.2" d="M177.93 105L218.788 76.9501L256.351 135L226.037 149.175L177.93 105Z" fill="#000E0E"/>
<path opacity="0.2" d="M509.026 122.85L546.356 155.655L500.181 210.6L477.116 182.925L509.026 122.85Z" fill="#000E0E"/>
<path opacity="0.2" d="M582.554 444.151L573.171 472.298L508.681 450.233L531.148 401.63L582.554 444.151Z" fill="#00959F"/>
<path opacity="0.2" d="M323.76 619.689L274.587 618.507L276.533 548.893L309.284 555.194L323.76 619.689Z" fill="#000E0E"/>
<path opacity="0.2" d="M68.5191 417.814L54.8673 379.011L119.336 356.883L135.095 421.201L68.5191 417.814Z" fill="#00959F"/>
<path opacity="0.2" d="M218.788 77.9783L263.6 56.7L288.175 125.626L256.351 135L218.788 77.9783Z" fill="#00959F"/>
<path opacity="0.2" d="M545.384 155.93L577.405 194.451L517.315 238.275L500.84 210.6L545.384 155.93Z" fill="#00959F"/>
<path opacity="0.2" d="M572.553 471.482L550.024 516.505L489.235 477.68L508.682 450.227L572.553 471.482Z" fill="#000E0E"/>
<path opacity="0.2" d="M275.169 617.667L226.572 608.617L245.252 537.777L276.536 548.893L275.169 617.667Z" fill="#00959F"/>
<path opacity="0.2" d="M55.8502 379.289L47.3904 329.445L118.751 322.982L119.349 356.894L55.8502 379.289Z" fill="#000E0E"/>
<path opacity="0.2" d="M263.602 56.6996L311.705 48.6006L320.931 121.501L288.64 125.551L263.602 56.6996Z" fill="#000E0E"/>
<path opacity="0.2" d="M577.409 194.455L597.914 239.754L529.836 269.325L517.315 238.95L577.409 194.455Z" fill="#000E0E"/>
<path opacity="0.2" d="M550.025 516.514L516.982 553.226L465.901 501.591L488.916 478.04L550.025 516.514Z" fill="#00959F"/>
<path opacity="0.2" d="M226.566 608.619L182.692 586.854L216.153 521.823L244.825 537.567L226.566 608.619Z" fill="#000E0E"/>
<path opacity="0.2" d="M47.3874 329.443L52.2078 279.756L123.341 289.508L118.797 322.503L47.3874 329.443Z" fill="#00959F"/>
<path opacity="0.2" d="M364.427 49.2749L414.076 60.7424L386.835 129.599L353.226 122.849L364.427 49.2749Z" fill="#000E0E"/>
<path opacity="0.2" d="M611.409 291.963L613.924 344.03L540.38 335.475L537.744 301.05L611.409 291.963Z" fill="#000E0E"/>
<path opacity="0.2" d="M475.027 585.937L429.007 608.203L409.096 536.762L439.64 520.891L475.027 585.937Z" fill="#00959F"/>
<path opacity="0.2" d="M139.971 555.196L105.839 516.526L166.833 476.319L190.508 501.668L139.971 555.196Z" fill="#000E0E"/>
<path opacity="0.2" d="M66.5009 227.771L90.1726 181.622L148.048 226.405L132.979 257.907L66.5009 227.771Z" fill="#00959F"/>
<defs>
<filter id="filter0_d_433_7568" x="170.29" y="183.6" width="318.42" height="321.3" filterUnits="userSpaceOnUse" color-interpolation-filters="sRGB">
<feFlood flood-opacity="0" result="BackgroundImageFix"/>
<feColorMatrix in="SourceAlpha" type="matrix" values="0 0 0 0 0 0 0 0 0 0 0 0 0 0 0 0 0 0 127 0" result="hardAlpha"/>
<feMorphology radius="18" operator="dilate" in="SourceAlpha" result="effect1_dropShadow_433_7568"/>
<feOffset/>
<feGaussianBlur stdDeviation="40.95"/>
<feComposite in2="hardAlpha" operator="out"/>
<feColorMatrix type="matrix" values="0 0 0 0 0 0 0 0 0 0.584314 0 0 0 0 0.623529 0 0 0 1 0"/>
<feBlend mode="normal" in2="BackgroundImageFix" result="effect1_dropShadow_433_7568"/>
<feBlend mode="normal" in="SourceGraphic" in2="effect1_dropShadow_433_7568" result="shape"/>
</filter>
</defs>
</svg>
